<?xml version="1.0" encoding="UTF-8" standalone="no"?>
<svg
   xmlns:dc="http://purl.org/dc/elements/1.1/"
   xmlns:cc="http://creativecommons.org/ns#"
   xmlns:rdf="http://www.w3.org/1999/02/22-rdf-syntax-ns#"
   xmlns:svg="http://www.w3.org/2000/svg"
   xmlns="http://www.w3.org/2000/svg"
   id="svg12730"
   version="1.1"
   viewBox="0 0 49.660622 77.868332"
   height="77.868332mm"
   width="49.660622mm">
  <defs
     id="defs12724">
    <clipPath
       id="clipPath724"
       clipPathUnits="userSpaceOnUse">
      <path
         style="clip-rule:evenodd"
         id="path722"
         d="M 3.992e-5,0 H 2679 V 1659.75 H 3.992e-5 Z" />
    </clipPath>
    <clipPath
       id="clipPath704"
       clipPathUnits="userSpaceOnUse">
      <path
         style="clip-rule:evenodd"
         id="path702"
         d="M 3.992e-5,0 H 2679 V 1659.75 H 3.992e-5 Z" />
    </clipPath>
    <clipPath
       id="clipPath692"
       clipPathUnits="userSpaceOnUse">
      <path
         style="clip-rule:evenodd"
         id="path690"
         d="M 3.992e-5,0 H 2679 V 1659.75 H 3.992e-5 Z" />
    </clipPath>
    <clipPath
       id="clipPath680"
       clipPathUnits="userSpaceOnUse">
      <path
         style="clip-rule:evenodd"
         id="path678"
         d="M 3.992e-5,0 H 2679 V 1659.75 H 3.992e-5 Z" />
    </clipPath>
    <clipPath
       id="clipPath660"
       clipPathUnits="userSpaceOnUse">
      <path
         style="clip-rule:evenodd"
         id="path658"
         d="M 3.992e-5,0 H 2679 V 1659.75 H 3.992e-5 Z" />
    </clipPath>
    <clipPath
       id="clipPath640"
       clipPathUnits="userSpaceOnUse">
      <path
         style="clip-rule:evenodd"
         id="path638"
         d="M 3.992e-5,0 H 2679 V 1659.75 H 3.992e-5 Z" />
    </clipPath>
    <clipPath
       id="clipPath620"
       clipPathUnits="userSpaceOnUse">
      <path
         style="clip-rule:evenodd"
         id="path618"
         d="M 3.992e-5,0 H 2679 V 1659.75 H 3.992e-5 Z" />
    </clipPath>
    <clipPath
       id="clipPath600"
       clipPathUnits="userSpaceOnUse">
      <path
         style="clip-rule:evenodd"
         id="path598"
         d="M 3.992e-5,0 H 2679 V 1659.75 H 3.992e-5 Z" />
    </clipPath>
    <clipPath
       id="clipPath580"
       clipPathUnits="userSpaceOnUse">
      <path
         style="clip-rule:evenodd"
         id="path578"
         d="M 3.992e-5,0 H 2679 V 1659.75 H 3.992e-5 Z" />
    </clipPath>
    <clipPath
       id="clipPath560"
       clipPathUnits="userSpaceOnUse">
      <path
         style="clip-rule:evenodd"
         id="path558"
         d="M 3.992e-5,0 H 2679 V 1659.75 H 3.992e-5 Z" />
    </clipPath>
    <clipPath
       id="clipPath540"
       clipPathUnits="userSpaceOnUse">
      <path
         style="clip-rule:evenodd"
         id="path538"
         d="M 3.992e-5,0 H 2679 V 1659.75 H 3.992e-5 Z" />
    </clipPath>
    <clipPath
       id="clipPath520"
       clipPathUnits="userSpaceOnUse">
      <path
         style="clip-rule:evenodd"
         id="path518"
         d="M 3.992e-5,0 H 2679 V 1659.75 H 3.992e-5 Z" />
    </clipPath>
    <clipPath
       id="clipPath500"
       clipPathUnits="userSpaceOnUse">
      <path
         style="clip-rule:evenodd"
         id="path498"
         d="M 3.992e-5,0 H 2679 V 1659.75 H 3.992e-5 Z" />
    </clipPath>
    <clipPath
       id="clipPath480"
       clipPathUnits="userSpaceOnUse">
      <path
         style="clip-rule:evenodd"
         id="path478"
         d="M 3.992e-5,0 H 2679 V 1659.75 H 3.992e-5 Z" />
    </clipPath>
    <clipPath
       id="clipPath460"
       clipPathUnits="userSpaceOnUse">
      <path
         style="clip-rule:evenodd"
         id="path458"
         d="M 3.992e-5,0 H 2679 V 1659.75 H 3.992e-5 Z" />
    </clipPath>
    <clipPath
       id="clipPath440"
       clipPathUnits="userSpaceOnUse">
      <path
         style="clip-rule:evenodd"
         id="path438"
         d="M 3.992e-5,0 H 2679 V 1659.75 H 3.992e-5 Z" />
    </clipPath>
    <clipPath
       id="clipPath428"
       clipPathUnits="userSpaceOnUse">
      <path
         style="clip-rule:evenodd"
         id="path426"
         d="M 3.992e-5,0 H 2679 V 1659.75 H 3.992e-5 Z" />
    </clipPath>
    <clipPath
       id="clipPath412"
       clipPathUnits="userSpaceOnUse">
      <path
         style="clip-rule:evenodd"
         id="path410"
         d="M 3.992e-5,0 H 2679 V 1659.75 H 3.992e-5 Z" />
    </clipPath>
  </defs>
  <metadata
     id="metadata12727">
    <rdf:RDF>
      <cc:Work
         rdf:about="">
        <dc:format>image/svg+xml</dc:format>
        <dc:type
           rdf:resource="http://purl.org/dc/dcmitype/StillImage" />
        <dc:title></dc:title>
      </cc:Work>
    </rdf:RDF>
  </metadata>
  <g
     transform="translate(-66.639928,-45.643217)"
     id="layer1">
    <path
       id="path402"
       style="fill:#cdcdcd;fill-opacity:1;fill-rule:evenodd;stroke:none;stroke-width:0.35277775"
       d="M 66.768737,52.827183 H 116.17174 V 45.770217 H 66.768737 Z" />
    <path
       id="path404"
       style="fill:none;stroke:#000000;stroke-width:0.25400001;stroke-linecap:round;stroke-linejoin:round;stroke-miterlimit:10;stroke-dasharray:none;stroke-opacity:1"
       d="M 66.768737,52.827183 H 116.17174 V 45.770217 H 66.768737 Z" />
    <g
       id="g406"
       transform="matrix(0.35277777,0,0,-0.35277777,-221.52831,417.99097)">
      <g
         clip-path="url(#clipPath412)"
         id="g408">
        <text
           id="text416"
           style="font-variant:normal;font-weight:normal;font-size:9.75px;font-family:ArialMT;-inkscape-font-specification:ArialMT;writing-mode:lr-tb;fill:#000000;fill-opacity:1;fill-rule:nonzero;stroke:none"
           transform="matrix(1,0,0,-1,870.25,1041.82)">
          <tspan
             id="tspan414"
             y="0"
             x="0 7.4879999 12.7335 17.979 20.97225 26.95875 31.463249">Contact</tspan>
        </text>
      </g>
    </g>
    <path
       id="path418"
       style="fill:#ffffff;fill-opacity:1;fill-rule:evenodd;stroke:none;stroke-width:0.35277775"
       d="M 66.768737,123.38274 H 116.17174 V 52.827183 H 66.768737 Z" />
    <path
       id="path420"
       style="fill:none;stroke:#000000;stroke-width:0.25400001;stroke-linecap:round;stroke-linejoin:round;stroke-miterlimit:10;stroke-dasharray:none;stroke-opacity:1"
       d="M 66.768737,123.38274 H 116.17174 V 52.827183 H 66.768737 Z m 8.75947,0 V 52.827183 m -8.75947,6.614584 h 49.403003" />
    <g
       id="g422"
       transform="matrix(0.35277777,0,0,-0.35277777,-221.52831,417.99097)">
      <g
         clip-path="url(#clipPath428)"
         id="g424">
        <text
           id="text432"
           style="font-variant:normal;font-weight:bold;font-size:9.75px;font-family:Arial;-inkscape-font-specification:Arial-BoldMT;writing-mode:lr-tb;fill:#000000;fill-opacity:1;fill-rule:nonzero;stroke:none"
           transform="matrix(1,0,0,-1,821.45,1021.83)">
          <tspan
             id="tspan430"
             y="0"
             x="0 6.7502499">PK</tspan>
        </text>
      </g>
    </g>
    <g
       id="g434"
       transform="matrix(0.35277777,0,0,-0.35277777,-221.52831,417.99097)">
      <g
         clip-path="url(#clipPath440)"
         id="g436">
        <text
           id="text444"
           style="font-variant:normal;font-weight:bold;font-size:9.75px;font-family:Arial;-inkscape-font-specification:Arial-BoldMT;writing-mode:lr-tb;fill:#000000;fill-opacity:1;fill-rule:nonzero;stroke:none"
           transform="matrix(1,0,0,-1,846.3,1021.83)">
          <tspan
             id="tspan442"
             y="0"
             x="0 7.4879999 13.4745 19.461 22.464001 28.4505 33.695999 37.439999 39.692249">ContactID</tspan>
        </text>
      </g>
    </g>
    <g
       id="g454"
       transform="matrix(0.35277777,0,0,-0.35277777,-221.52831,417.99097)">
      <g
         clip-path="url(#clipPath460)"
         id="g456">
        <text
           id="text464"
           style="font-variant:normal;font-weight:bold;font-size:9.77499962px;font-family:Arial;-inkscape-font-specification:Arial-BoldMT;writing-mode:lr-tb;fill:#000000;fill-opacity:1;fill-rule:nonzero;stroke:none"
           transform="matrix(1,0,0,-1,846.3,997.82)">
          <tspan
             id="tspan462"
             y="0"
             x="0 7.4876499 12.736825 21.729824 26.979 33.723751 37.467575 42.716751 45.707901">NameStyle</tspan>
        </text>
      </g>
    </g>
    <g
       id="g474"
       transform="matrix(0.35277777,0,0,-0.35277777,-221.52831,417.99097)">
      <g
         clip-path="url(#clipPath480)"
         id="g476">
        <text
           id="text484"
           style="font-variant:normal;font-weight:bold;font-size:9.75px;font-family:Arial;-inkscape-font-specification:Arial-BoldMT;writing-mode:lr-tb;fill:#000000;fill-opacity:1;fill-rule:nonzero;stroke:none"
           transform="matrix(1,0,0,-1,846.3,985.8)">
          <tspan
             id="tspan482"
             y="0"
             x="0 5.9864998 8.9797497 11.98275 14.976">Title</tspan>
        </text>
      </g>
    </g>
    <g
       id="g494"
       transform="matrix(0.35277777,0,0,-0.35277777,-221.52831,417.99097)">
      <g
         clip-path="url(#clipPath500)"
         id="g496">
        <text
           id="text504"
           style="font-variant:normal;font-weight:bold;font-size:9.75px;font-family:Arial;-inkscape-font-specification:Arial-BoldMT;writing-mode:lr-tb;fill:#000000;fill-opacity:1;fill-rule:nonzero;stroke:none"
           transform="matrix(1,0,0,-1,846.3,973.8)">
          <tspan
             id="tspan502"
             y="0"
             x="0 5.9864998 8.9797497 12.7335 17.979 21.723 29.211 34.456501 43.445999">FirstName</tspan>
        </text>
      </g>
    </g>
    <g
       id="g514"
       transform="matrix(0.35277777,0,0,-0.35277777,-221.52831,417.99097)">
      <g
         clip-path="url(#clipPath520)"
         id="g516">
        <text
           id="text524"
           style="font-variant:normal;font-weight:bold;font-size:9.75px;font-family:Arial;-inkscape-font-specification:Arial-BoldMT;writing-mode:lr-tb;fill:#000000;fill-opacity:1;fill-rule:nonzero;stroke:none"
           transform="matrix(1,0,0,-1,846.3,961.8)">
          <tspan
             id="tspan522"
             y="0"
             x="0 8.2387505 11.232 17.2185 23.205 26.19825 31.44375 38.931751 44.17725 53.166752">MiddleName</tspan>
        </text>
      </g>
    </g>
    <g
       id="g534"
       transform="matrix(0.35277777,0,0,-0.35277777,-221.52831,417.99097)">
      <g
         clip-path="url(#clipPath540)"
         id="g536">
        <text
           id="text544"
           style="font-variant:normal;font-weight:bold;font-size:9.75px;font-family:Arial;-inkscape-font-specification:Arial-BoldMT;writing-mode:lr-tb;fill:#000000;fill-opacity:1;fill-rule:nonzero;stroke:none"
           transform="matrix(1,0,0,-1,846.3,949.8)">
          <tspan
             id="tspan542"
             y="0"
             x="0 5.9864998 11.973 17.2185 20.2215 27.709499 32.955002 41.9445">LastName</tspan>
        </text>
      </g>
    </g>
    <g
       id="g554"
       transform="matrix(0.35277777,0,0,-0.35277777,-221.52831,417.99097)">
      <g
         clip-path="url(#clipPath560)"
         id="g556">
        <text
           id="text564"
           style="font-variant:normal;font-weight:bold;font-size:9.75px;font-family:Arial;-inkscape-font-specification:Arial-BoldMT;writing-mode:lr-tb;fill:#000000;fill-opacity:1;fill-rule:nonzero;stroke:none"
           transform="matrix(1,0,0,-1,846.3,937.78)">
          <tspan
             id="tspan562"
             y="0"
             x="0 6.7372499 12.72375 15.72675 19.470751 22.464001">Suffix</tspan>
        </text>
      </g>
    </g>
    <g
       id="g574"
       transform="matrix(0.35277777,0,0,-0.35277777,-221.52831,417.99097)">
      <g
         clip-path="url(#clipPath580)"
         id="g576">
        <text
           id="text584"
           style="font-variant:normal;font-weight:bold;font-size:9.75px;font-family:Arial;-inkscape-font-specification:Arial-BoldMT;writing-mode:lr-tb;fill:#000000;fill-opacity:1;fill-rule:nonzero;stroke:none"
           transform="matrix(1,0,0,-1,846.3,925.77)">
          <tspan
             id="tspan582"
             y="0"
             x="0 6.7372499 15.72675 20.97225 23.9655 26.95875 33.70575 39.692249 45.678749 50.1735 55.418999 61.405499">EmailAddress</tspan>
        </text>
      </g>
    </g>
    <g
       id="g594"
       transform="matrix(0.35277777,0,0,-0.35277777,-221.52831,417.99097)">
      <g
         clip-path="url(#clipPath600)"
         id="g596">
        <text
           id="text604"
           style="font-variant:normal;font-weight:bold;font-size:9.75px;font-family:Arial;-inkscape-font-specification:Arial-BoldMT;writing-mode:lr-tb;fill:#000000;fill-opacity:1;fill-rule:nonzero;stroke:none"
           transform="matrix(1,0,0,-1,846.3,913.78)">
          <tspan
             id="tspan602"
             y="0"
             x="0 6.7372499 15.72675 20.97225 23.9655 26.95875 32.955002 37.449749 43.436249 52.425751 58.412251 61.415249 64.408501 70.394997">EmailPromotion</tspan>
        </text>
      </g>
    </g>
    <g
       id="g614"
       transform="matrix(0.35277777,0,0,-0.35277777,-221.52831,417.99097)">
      <g
         clip-path="url(#clipPath620)"
         id="g616">
        <text
           id="text624"
           style="font-variant:normal;font-weight:bold;font-size:9.75px;font-family:Arial;-inkscape-font-specification:Arial-BoldMT;writing-mode:lr-tb;fill:#000000;fill-opacity:1;fill-rule:nonzero;stroke:none"
           transform="matrix(1,0,0,-1,846.3,901.78)">
          <tspan
             id="tspan622"
             y="0"
             x="0 6.7372499 12.72375 18.710251 24.696751">Phone</tspan>
        </text>
      </g>
    </g>
    <g
       id="g634"
       transform="matrix(0.35277777,0,0,-0.35277777,-221.52831,417.99097)">
      <g
         clip-path="url(#clipPath640)"
         id="g636">
        <text
           id="text644"
           style="font-variant:normal;font-weight:bold;font-size:9.77499962px;font-family:Arial;-inkscape-font-specification:Arial-BoldMT;writing-mode:lr-tb;fill:#000000;fill-opacity:1;fill-rule:nonzero;stroke:none"
           transform="matrix(1,0,0,-1,846.3,889.77)">
          <tspan
             id="tspan642"
             y="0"
             x="0 6.74475 11.993925 17.986 23.235174 31.4755 37.448025 41.2505 47.223026 54.720451 59.969624 65.218803">PasswordHash</tspan>
        </text>
      </g>
    </g>
    <g
       id="g654"
       transform="matrix(0.35277777,0,0,-0.35277777,-221.52831,417.99097)">
      <g
         clip-path="url(#clipPath660)"
         id="g656">
        <text
           id="text664"
           style="font-variant:normal;font-weight:bold;font-size:9.75px;font-family:Arial;-inkscape-font-specification:Arial-BoldMT;writing-mode:lr-tb;fill:#000000;fill-opacity:1;fill-rule:nonzero;stroke:none"
           transform="matrix(1,0,0,-1,846.3,877.75)">
          <tspan
             id="tspan662"
             y="0"
             x="0 6.7372499 11.98275 17.96925 23.21475 31.453501 37.439999 41.193748 47.180248 53.9175 59.162998 62.15625">PasswordSalt</tspan>
        </text>
      </g>
    </g>
    <g
       id="g674"
       transform="matrix(0.35277777,0,0,-0.35277777,-221.52831,417.99097)">
      <g
         clip-path="url(#clipPath680)"
         id="g676">
        <text
           id="text684"
           style="font-variant:normal;font-weight:bold;font-size:9.75px;font-family:Arial;-inkscape-font-specification:Arial-BoldMT;writing-mode:lr-tb;fill:#000000;fill-opacity:1;fill-rule:nonzero;stroke:none"
           transform="matrix(1,0,0,-1,846.3,865.75)">
          <tspan
             id="tspan682"
             y="0"
             x="0 7.4879999 13.4745 19.461 22.45425 25.457251 28.4505 34.437 40.4235 45.668999 48.662251 56.150249 62.136749 68.123253 71.867249 77.112747 82.358253 86.102249 89.095497 95.082001 98.084999">AdditionalContactInfo</tspan>
        </text>
      </g>
    </g>
    <g
       id="g686"
       transform="matrix(0.35277777,0,0,-0.35277777,-221.52831,417.99097)">
      <g
         clip-path="url(#clipPath692)"
         id="g688">
        <text
           id="text696"
           style="font-variant:normal;font-weight:bold;font-size:9.75px;font-family:Arial;-inkscape-font-specification:Arial-BoldMT;writing-mode:lr-tb;fill:#000000;fill-opacity:1;fill-rule:nonzero;stroke:none"
           transform="matrix(1,0,0,-1,821.45,853.75)">
          <tspan
             id="tspan694"
             y="0"
             x="0 7.4994998">U1</tspan>
        </text>
      </g>
    </g>
    <g
       id="g698"
       transform="matrix(0.35277777,0,0,-0.35277777,-221.52831,417.99097)">
      <g
         clip-path="url(#clipPath704)"
         id="g700">
        <text
           id="text708"
           style="font-variant:normal;font-weight:bold;font-size:9.75px;font-family:Arial;-inkscape-font-specification:Arial-BoldMT;writing-mode:lr-tb;fill:#000000;fill-opacity:1;fill-rule:nonzero;stroke:none"
           transform="matrix(1,0,0,-1,846.3,853.75)">
          <tspan
             id="tspan706"
             y="0"
             x="0 3.7537501 9.7402496 17.979 23.9655 29.952 32.945251">rowguid</tspan>
        </text>
      </g>
    </g>
    <g
       id="g718"
       transform="matrix(0.35277777,0,0,-0.35277777,-221.52831,417.99097)">
      <g
         clip-path="url(#clipPath724)"
         id="g720">
        <text
           id="text728"
           style="font-variant:normal;font-weight:bold;font-size:9.75px;font-family:Arial;-inkscape-font-specification:Arial-BoldMT;writing-mode:lr-tb;fill:#000000;fill-opacity:1;fill-rule:nonzero;stroke:none"
           transform="matrix(1,0,0,-1,846.3,841.75)">
          <tspan
             id="tspan726"
             y="0"
             x="0 8.2387505 14.22525 20.21175 23.205 26.948999 29.20125 35.187752 41.174252 47.921249 53.907749 56.910751">ModifiedDate</tspan>
        </text>
      </g>
    </g>
  </g>
</svg>
