<?xml version="1.0" encoding="UTF-8" standalone="no"?>
<svg
   xmlns:dc="http://purl.org/dc/elements/1.1/"
   xmlns:cc="http://creativecommons.org/ns#"
   xmlns:rdf="http://www.w3.org/1999/02/22-rdf-syntax-ns#"
   xmlns:svg="http://www.w3.org/2000/svg"
   xmlns="http://www.w3.org/2000/svg"
   id="svg13541"
   version="1.1"
   viewBox="0 0 35.951672 31.305195"
   height="31.305195mm"
   width="35.951672mm">
  <defs
     id="defs13535">
    <clipPath
       id="clipPath11500"
       clipPathUnits="userSpaceOnUse">
      <path
         style="clip-rule:evenodd"
         id="path11498"
         d="M 3.992e-5,0 H 2679 V 1659.75 H 3.992e-5 Z" />
    </clipPath>
    <clipPath
       id="clipPath11480"
       clipPathUnits="userSpaceOnUse">
      <path
         style="clip-rule:evenodd"
         id="path11478"
         d="M 3.992e-5,0 H 2679 V 1659.75 H 3.992e-5 Z" />
    </clipPath>
    <clipPath
       id="clipPath11460"
       clipPathUnits="userSpaceOnUse">
      <path
         style="clip-rule:evenodd"
         id="path11458"
         d="M 3.992e-5,0 H 2679 V 1659.75 H 3.992e-5 Z" />
    </clipPath>
    <clipPath
       id="clipPath11448"
       clipPathUnits="userSpaceOnUse">
      <path
         style="clip-rule:evenodd"
         id="path11446"
         d="M 3.992e-5,0 H 2679 V 1659.75 H 3.992e-5 Z" />
    </clipPath>
    <clipPath
       id="clipPath11436"
       clipPathUnits="userSpaceOnUse">
      <path
         style="clip-rule:evenodd"
         id="path11434"
         d="M 3.992e-5,0 H 2679 V 1659.75 H 3.992e-5 Z" />
    </clipPath>
    <clipPath
       id="clipPath11424"
       clipPathUnits="userSpaceOnUse">
      <path
         style="clip-rule:evenodd"
         id="path11422"
         d="M 3.992e-5,0 H 2679 V 1659.75 H 3.992e-5 Z" />
    </clipPath>
    <clipPath
       id="clipPath11408"
       clipPathUnits="userSpaceOnUse">
      <path
         style="clip-rule:evenodd"
         id="path11406"
         d="M 3.992e-5,0 H 2679 V 1659.75 H 3.992e-5 Z" />
    </clipPath>
  </defs>
  <metadata
     id="metadata13538">
    <rdf:RDF>
      <cc:Work
         rdf:about="">
        <dc:format>image/svg+xml</dc:format>
        <dc:type
           rdf:resource="http://purl.org/dc/dcmitype/StillImage" />
        <dc:title></dc:title>
      </cc:Work>
    </rdf:RDF>
  </metadata>
  <g
     transform="translate(-71.982497,-77.996214)"
     id="layer1">
    <path
       id="path11398"
       style="fill:#cdcdcd;fill-opacity:1;fill-rule:evenodd;stroke:none;stroke-width:0.35277775"
       d="M 72.111306,85.18018 H 107.80536 V 78.123214 H 72.111306 Z" />
    <path
       id="path11400"
       style="fill:none;stroke:#000000;stroke-width:0.25400001;stroke-linecap:round;stroke-linejoin:round;stroke-miterlimit:2;stroke-dasharray:none;stroke-opacity:1"
       d="M 72.111306,85.18018 H 107.80536 V 78.123214 H 72.111306 Z" />
    <g
       id="g11402"
       transform="matrix(0.35277777,0,0,-0.35277777,-21.80166,509.8082)">
      <g
         clip-path="url(#clipPath11408)"
         id="g11404">
        <text
           id="text11412"
           style="font-variant:normal;font-weight:normal;font-size:9.77499962px;font-family:ArialMT;-inkscape-font-specification:ArialMT;writing-mode:lr-tb;fill:#000000;fill-opacity:1;fill-rule:nonzero;stroke:none"
           transform="matrix(1,0,0,-1,290.75,1210.47)">
          <tspan
             id="tspan11410"
             y="0"
             x="0 7.4876499 12.736825 17.986 23.978075 26.979 29.97015 38.210476 44.202549 49.451725">Department</tspan>
        </text>
      </g>
    </g>
    <path
       id="path11414"
       style="fill:#ffffff;fill-opacity:1;fill-rule:evenodd;stroke:none;stroke-width:0.35277775"
       d="M 72.111306,109.1726 H 107.80536 V 85.182297 H 72.111306 Z" />
    <path
       id="path11416"
       style="fill:none;stroke:#000000;stroke-width:0.25400001;stroke-linecap:round;stroke-linejoin:round;stroke-miterlimit:2;stroke-dasharray:none;stroke-opacity:1"
       d="M 72.111306,109.1726 H 107.80536 V 85.18018 H 72.111306 Z m 8.759472,0 V 85.18018 m -8.759472,7.196667 h 35.694054" />
    <g
       id="g11418"
       transform="matrix(0.35277777,0,0,-0.35277777,-21.80166,509.8082)">
      <g
         clip-path="url(#clipPath11424)"
         id="g11420">
        <text
           id="text11428"
           style="font-variant:normal;font-weight:bold;font-size:9.75px;font-family:Arial;-inkscape-font-specification:Arial-BoldMT;writing-mode:lr-tb;fill:#000000;fill-opacity:1;fill-rule:nonzero;stroke:none"
           transform="matrix(1,0,0,-1,270.27,1190.45)">
          <tspan
             id="tspan11426"
             y="0"
             x="0 6.7502499">PK</tspan>
        </text>
      </g>
    </g>
    <g
       id="g11430"
       transform="matrix(0.35277777,0,0,-0.35277777,-21.80166,509.8082)">
      <g
         clip-path="url(#clipPath11436)"
         id="g11432">
        <text
           id="text11440"
           style="font-variant:normal;font-weight:bold;font-size:9.75px;font-family:Arial;-inkscape-font-specification:Arial-BoldMT;writing-mode:lr-tb;fill:#000000;fill-opacity:1;fill-rule:nonzero;stroke:none"
           transform="matrix(1,0,0,-1,295.13,1190.45)">
          <tspan
             id="tspan11438"
             y="0"
             x="0 7.4879999 12.7335 18.719999 24.706499 28.460251 31.463249 40.452751 46.439251 52.425751 55.428749 58.422001">DepartmentID</tspan>
        </text>
      </g>
    </g>
    <g
       id="g11442"
       transform="matrix(0.35277777,0,0,-0.35277777,-21.80166,509.8082)">
      <g
         clip-path="url(#clipPath11448)"
         id="g11444">
        <text
           id="text11452"
           style="font-variant:normal;font-weight:bold;font-size:9.75px;font-family:Arial;-inkscape-font-specification:Arial-BoldMT;writing-mode:lr-tb;fill:#000000;fill-opacity:1;fill-rule:nonzero;stroke:none"
           transform="matrix(1,0,0,-1,270.27,1166.45)">
          <tspan
             id="tspan11450"
             y="0"
             x="0 7.4994998">U1</tspan>
        </text>
      </g>
    </g>
    <g
       id="g11454"
       transform="matrix(0.35277777,0,0,-0.35277777,-21.80166,509.8082)">
      <g
         clip-path="url(#clipPath11460)"
         id="g11456">
        <text
           id="text11464"
           style="font-variant:normal;font-weight:bold;font-size:9.75px;font-family:Arial;-inkscape-font-specification:Arial-BoldMT;writing-mode:lr-tb;fill:#000000;fill-opacity:1;fill-rule:nonzero;stroke:none"
           transform="matrix(1,0,0,-1,295.13,1166.45)">
          <tspan
             id="tspan11462"
             y="0"
             x="0 7.4879999 12.7335 21.723">Name</tspan>
        </text>
      </g>
    </g>
    <g
       id="g11474"
       transform="matrix(0.35277777,0,0,-0.35277777,-21.80166,509.8082)">
      <g
         clip-path="url(#clipPath11480)"
         id="g11476">
        <text
           id="text11484"
           style="font-variant:normal;font-weight:bold;font-size:9.75px;font-family:Arial;-inkscape-font-specification:Arial-BoldMT;writing-mode:lr-tb;fill:#000000;fill-opacity:1;fill-rule:nonzero;stroke:none"
           transform="matrix(1,0,0,-1,295.13,1154.43)">
          <tspan
             id="tspan11482"
             y="0"
             x="0 7.4977498 11.9925 17.979 23.9655 29.952 37.439999 42.685501 51.674999">GroupName</tspan>
        </text>
      </g>
    </g>
    <g
       id="g11494"
       transform="matrix(0.35277777,0,0,-0.35277777,-21.80166,509.8082)">
      <g
         clip-path="url(#clipPath11500)"
         id="g11496">
        <text
           id="text11504"
           style="font-variant:normal;font-weight:bold;font-size:9.75px;font-family:Arial;-inkscape-font-specification:Arial-BoldMT;writing-mode:lr-tb;fill:#000000;fill-opacity:1;fill-rule:nonzero;stroke:none"
           transform="matrix(1,0,0,-1,295.13,1142.43)">
          <tspan
             id="tspan11502"
             y="0"
             x="0 8.2387505 14.22525 20.21175 23.205 26.948999 29.20125 35.187752 41.174252 47.921249 53.907749 56.910751">ModifiedDate</tspan>
        </text>
      </g>
    </g>
  </g>
</svg>
