<?xml version="1.0" encoding="UTF-8" standalone="no"?>
<svg
   xmlns:dc="http://purl.org/dc/elements/1.1/"
   xmlns:cc="http://creativecommons.org/ns#"
   xmlns:rdf="http://www.w3.org/1999/02/22-rdf-syntax-ns#"
   xmlns:svg="http://www.w3.org/2000/svg"
   xmlns="http://www.w3.org/2000/svg"
   id="svg13141"
   version="1.1"
   viewBox="0 0 45.187397 86.334999"
   height="86.334999mm"
   width="45.187397mm">
  <defs
     id="defs13135">
    <clipPath
       id="clipPath11208"
       clipPathUnits="userSpaceOnUse">
      <path
         style="clip-rule:evenodd"
         id="path11206"
         d="M 3.992e-5,0 H 2679 V 1659.75 H 3.992e-5 Z" />
    </clipPath>
    <clipPath
       id="clipPath11188"
       clipPathUnits="userSpaceOnUse">
      <path
         style="clip-rule:evenodd"
         id="path11186"
         d="M 3.992e-5,0 H 2679 V 1659.75 H 3.992e-5 Z" />
    </clipPath>
    <clipPath
       id="clipPath11176"
       clipPathUnits="userSpaceOnUse">
      <path
         style="clip-rule:evenodd"
         id="path11174"
         d="M 3.992e-5,0 H 2679 V 1659.75 H 3.992e-5 Z" />
    </clipPath>
    <clipPath
       id="clipPath11164"
       clipPathUnits="userSpaceOnUse">
      <path
         style="clip-rule:evenodd"
         id="path11162"
         d="M 3.992e-5,0 H 2679 V 1659.75 H 3.992e-5 Z" />
    </clipPath>
    <clipPath
       id="clipPath11144"
       clipPathUnits="userSpaceOnUse">
      <path
         style="clip-rule:evenodd"
         id="path11142"
         d="M 3.992e-5,0 H 2679 V 1659.75 H 3.992e-5 Z" />
    </clipPath>
    <clipPath
       id="clipPath11124"
       clipPathUnits="userSpaceOnUse">
      <path
         style="clip-rule:evenodd"
         id="path11122"
         d="M 3.992e-5,0 H 2679 V 1659.75 H 3.992e-5 Z" />
    </clipPath>
    <clipPath
       id="clipPath11104"
       clipPathUnits="userSpaceOnUse">
      <path
         style="clip-rule:evenodd"
         id="path11102"
         d="M 3.992e-5,0 H 2679 V 1659.75 H 3.992e-5 Z" />
    </clipPath>
    <clipPath
       id="clipPath11084"
       clipPathUnits="userSpaceOnUse">
      <path
         style="clip-rule:evenodd"
         id="path11082"
         d="M 3.992e-5,0 H 2679 V 1659.75 H 3.992e-5 Z" />
    </clipPath>
    <clipPath
       id="clipPath11064"
       clipPathUnits="userSpaceOnUse">
      <path
         style="clip-rule:evenodd"
         id="path11062"
         d="M 3.992e-5,0 H 2679 V 1659.75 H 3.992e-5 Z" />
    </clipPath>
    <clipPath
       id="clipPath11044"
       clipPathUnits="userSpaceOnUse">
      <path
         style="clip-rule:evenodd"
         id="path11042"
         d="M 3.992e-5,0 H 2679 V 1659.75 H 3.992e-5 Z" />
    </clipPath>
    <clipPath
       id="clipPath11024"
       clipPathUnits="userSpaceOnUse">
      <path
         style="clip-rule:evenodd"
         id="path11022"
         d="M 3.992e-5,0 H 2679 V 1659.75 H 3.992e-5 Z" />
    </clipPath>
    <clipPath
       id="clipPath11004"
       clipPathUnits="userSpaceOnUse">
      <path
         style="clip-rule:evenodd"
         id="path11002"
         d="M 3.992e-5,0 H 2679 V 1659.75 H 3.992e-5 Z" />
    </clipPath>
    <clipPath
       id="clipPath10984"
       clipPathUnits="userSpaceOnUse">
      <path
         style="clip-rule:evenodd"
         id="path10982"
         d="M 3.992e-5,0 H 2679 V 1659.75 H 3.992e-5 Z" />
    </clipPath>
    <clipPath
       id="clipPath10964"
       clipPathUnits="userSpaceOnUse">
      <path
         style="clip-rule:evenodd"
         id="path10962"
         d="M 3.992e-5,0 H 2679 V 1659.75 H 3.992e-5 Z" />
    </clipPath>
    <clipPath
       id="clipPath10952"
       clipPathUnits="userSpaceOnUse">
      <path
         style="clip-rule:evenodd"
         id="path10950"
         d="M 3.992e-5,0 H 2679 V 1659.75 H 3.992e-5 Z" />
    </clipPath>
    <clipPath
       id="clipPath10940"
       clipPathUnits="userSpaceOnUse">
      <path
         style="clip-rule:evenodd"
         id="path10938"
         d="M 3.992e-5,0 H 2679 V 1659.75 H 3.992e-5 Z" />
    </clipPath>
    <clipPath
       id="clipPath10928"
       clipPathUnits="userSpaceOnUse">
      <path
         style="clip-rule:evenodd"
         id="path10926"
         d="M 3.992e-5,0 H 2679 V 1659.75 H 3.992e-5 Z" />
    </clipPath>
    <clipPath
       id="clipPath10916"
       clipPathUnits="userSpaceOnUse">
      <path
         style="clip-rule:evenodd"
         id="path10914"
         d="M 3.992e-5,0 H 2679 V 1659.75 H 3.992e-5 Z" />
    </clipPath>
    <clipPath
       id="clipPath10904"
       clipPathUnits="userSpaceOnUse">
      <path
         style="clip-rule:evenodd"
         id="path10902"
         d="M 3.992e-5,0 H 2679 V 1659.75 H 3.992e-5 Z" />
    </clipPath>
    <clipPath
       id="clipPath10892"
       clipPathUnits="userSpaceOnUse">
      <path
         style="clip-rule:evenodd"
         id="path10890"
         d="M 3.992e-5,0 H 2679 V 1659.75 H 3.992e-5 Z" />
    </clipPath>
    <clipPath
       id="clipPath10880"
       clipPathUnits="userSpaceOnUse">
      <path
         style="clip-rule:evenodd"
         id="path10878"
         d="M 3.992e-5,0 H 2679 V 1659.75 H 3.992e-5 Z" />
    </clipPath>
    <clipPath
       id="clipPath10868"
       clipPathUnits="userSpaceOnUse">
      <path
         style="clip-rule:evenodd"
         id="path10866"
         d="M 3.992e-5,0 H 2679 V 1659.75 H 3.992e-5 Z" />
    </clipPath>
    <clipPath
       id="clipPath10856"
       clipPathUnits="userSpaceOnUse">
      <path
         style="clip-rule:evenodd"
         id="path10854"
         d="M 3.992e-5,0 H 2679 V 1659.75 H 3.992e-5 Z" />
    </clipPath>
    <clipPath
       id="clipPath10840"
       clipPathUnits="userSpaceOnUse">
      <path
         style="clip-rule:evenodd"
         id="path10838"
         d="M 3.992e-5,0 H 2679 V 1659.75 H 3.992e-5 Z" />
    </clipPath>
  </defs>
  <metadata
     id="metadata13138">
    <rdf:RDF>
      <cc:Work
         rdf:about="">
        <dc:format>image/svg+xml</dc:format>
        <dc:type
           rdf:resource="http://purl.org/dc/dcmitype/StillImage" />
        <dc:title></dc:title>
      </cc:Work>
    </rdf:RDF>
  </metadata>
  <g
     transform="translate(-25.031302,-31.582502)"
     id="layer1">
    <path
       id="path10830"
       style="fill:#cdcdcd;fill-opacity:1;fill-rule:evenodd;stroke:none;stroke-width:0.35277775"
       d="M 25.160111,38.766469 H 70.086359 V 31.709502 H 25.160111 Z" />
    <path
       id="path10832"
       style="fill:none;stroke:#000000;stroke-width:0.25400001;stroke-linecap:round;stroke-linejoin:round;stroke-miterlimit:2;stroke-dasharray:none;stroke-opacity:1"
       d="M 25.160111,38.766469 H 70.086359 V 31.709502 H 25.160111 Z" />
    <g
       id="g10834"
       transform="matrix(0.35277777,0,0,-0.35277777,-79.374998,409.91338)">
      <g
         clip-path="url(#clipPath10840)"
         id="g10836">
        <text
           id="text10844"
           style="font-variant:normal;font-weight:normal;font-size:9.75px;font-family:ArialMT;-inkscape-font-specification:ArialMT;writing-mode:lr-tb;fill:#000000;fill-opacity:1;fill-rule:nonzero;stroke:none"
           transform="matrix(1,0,0,-1,337.85,1058.8)">
          <tspan
             id="tspan10842"
             y="0"
             x="0 6.7372499 14.976 20.2215 22.464001 28.4505 32.955002 38.941502">Employee</tspan>
        </text>
      </g>
    </g>
    <path
       id="path10846"
       style="fill:#ffffff;fill-opacity:1;fill-rule:evenodd;stroke:none;stroke-width:0.35277775"
       d="M 25.160111,117.78869 H 70.086359 V 38.766469 H 25.160111 Z" />
    <path
       id="path10848"
       style="fill:none;stroke:#000000;stroke-width:0.25400001;stroke-linecap:round;stroke-linejoin:round;stroke-miterlimit:2;stroke-dasharray:none;stroke-opacity:1"
       d="M 25.160111,117.78869 H 70.089889 V 38.766469 H 25.160111 Z m 10.350499,0 V 38.766469 m -10.350499,6.58636 h 44.929778" />
    <g
       id="g10850"
       transform="matrix(0.35277777,0,0,-0.35277777,-79.374998,409.91338)">
      <g
         clip-path="url(#clipPath10856)"
         id="g10852">
        <text
           id="text10860"
           style="font-variant:normal;font-weight:bold;font-size:9.77499962px;font-family:Arial;-inkscape-font-specification:Arial-BoldMT;writing-mode:lr-tb;fill:#000000;fill-opacity:1;fill-rule:nonzero;stroke:none"
           transform="matrix(1,0,0,-1,300.4,1038.8)">
          <tspan
             id="tspan10858"
             y="0"
             x="0 6.7499251">PK</tspan>
        </text>
      </g>
    </g>
    <g
       id="g10862"
       transform="matrix(0.35277777,0,0,-0.35277777,-79.374998,409.91338)">
      <g
         clip-path="url(#clipPath10868)"
         id="g10864">
        <text
           id="text10872"
           style="font-variant:normal;font-weight:bold;font-size:9.77499962px;font-family:Arial;-inkscape-font-specification:Arial-BoldMT;writing-mode:lr-tb;fill:#000000;fill-opacity:1;fill-rule:nonzero;stroke:none"
           transform="matrix(1,0,0,-1,329.75,1038.8)">
          <tspan
             id="tspan10870"
             y="0"
             x="0 6.74475 15.73775 21.710276 24.730749 30.703276 35.981773 41.97385 47.223026 50.214176">EmployeeID</tspan>
        </text>
      </g>
    </g>
    <g
       id="g10874"
       transform="matrix(0.35277777,0,0,-0.35277777,-79.374998,409.91338)">
      <g
         clip-path="url(#clipPath10880)"
         id="g10876">
        <text
           id="text10884"
           style="font-variant:normal;font-weight:bold;font-size:9.75px;font-family:Arial;-inkscape-font-specification:Arial-BoldMT;writing-mode:lr-tb;fill:#000000;fill-opacity:1;fill-rule:nonzero;stroke:none"
           transform="matrix(1,0,0,-1,300.4,1014.78)">
          <tspan
             id="tspan10882"
             y="0"
             x="0 7.4994998">U2</tspan>
        </text>
      </g>
    </g>
    <g
       id="g10886"
       transform="matrix(0.35277777,0,0,-0.35277777,-79.374998,409.91338)">
      <g
         clip-path="url(#clipPath10892)"
         id="g10888">
        <text
           id="text10896"
           style="font-variant:normal;font-weight:bold;font-size:9.75px;font-family:Arial;-inkscape-font-specification:Arial-BoldMT;writing-mode:lr-tb;fill:#000000;fill-opacity:1;fill-rule:nonzero;stroke:none"
           transform="matrix(1,0,0,-1,329.75,1014.78)">
          <tspan
             id="tspan10894"
             y="0"
             x="0 7.4879999 12.7335 15.7365 18.72975 24.716249 30.702749 36.689251 39.682499 41.93475 49.422749 56.910751 62.897251 71.886749 77.873253 83.118752">NationalIDNumber</tspan>
        </text>
      </g>
    </g>
    <g
       id="g10898"
       transform="matrix(0.35277777,0,0,-0.35277777,-79.374998,409.91338)">
      <g
         clip-path="url(#clipPath10904)"
         id="g10900">
        <text
           id="text10908"
           style="font-variant:normal;font-weight:bold;font-size:9.75px;font-family:Arial;-inkscape-font-specification:Arial-BoldMT;writing-mode:lr-tb;fill:#000000;fill-opacity:1;fill-rule:nonzero;stroke:none"
           transform="matrix(1,0,0,-1,300.4,1002.78)">
          <tspan
             id="tspan10906"
             y="0"
             x="0 5.9864998 13.4745">FK2</tspan>
        </text>
      </g>
    </g>
    <g
       id="g10910"
       transform="matrix(0.35277777,0,0,-0.35277777,-79.374998,409.91338)">
      <g
         clip-path="url(#clipPath10916)"
         id="g10912">
        <text
           id="text10920"
           style="font-variant:normal;font-weight:bold;font-size:9.75px;font-family:Arial;-inkscape-font-specification:Arial-BoldMT;writing-mode:lr-tb;fill:#000000;fill-opacity:1;fill-rule:nonzero;stroke:none"
           transform="matrix(1,0,0,-1,329.75,1002.78)">
          <tspan
             id="tspan10918"
             y="0"
             x="0 7.4879999 13.4745 19.461 22.464001 28.4505 33.695999 37.439999 39.692249">ContactID</tspan>
        </text>
      </g>
    </g>
    <g
       id="g10922"
       transform="matrix(0.35277777,0,0,-0.35277777,-79.374998,409.91338)">
      <g
         clip-path="url(#clipPath10928)"
         id="g10924">
        <text
           id="text10932"
           style="font-variant:normal;font-weight:bold;font-size:9.75px;font-family:Arial;-inkscape-font-specification:Arial-BoldMT;writing-mode:lr-tb;fill:#000000;fill-opacity:1;fill-rule:nonzero;stroke:none"
           transform="matrix(1,0,0,-1,300.4,990.77)">
          <tspan
             id="tspan10930"
             y="0"
             x="0 7.4994998">U1</tspan>
        </text>
      </g>
    </g>
    <g
       id="g10934"
       transform="matrix(0.35277777,0,0,-0.35277777,-79.374998,409.91338)">
      <g
         clip-path="url(#clipPath10940)"
         id="g10936">
        <text
           id="text10944"
           style="font-variant:normal;font-weight:bold;font-size:9.75px;font-family:Arial;-inkscape-font-specification:Arial-BoldMT;writing-mode:lr-tb;fill:#000000;fill-opacity:1;fill-rule:nonzero;stroke:none"
           transform="matrix(1,0,0,-1,329.75,990.77)">
          <tspan
             id="tspan10942"
             y="0"
             x="0 5.9864998 11.973 17.959499 20.952749 26.939251 29.932501">LoginID</tspan>
        </text>
      </g>
    </g>
    <g
       id="g10946"
       transform="matrix(0.35277777,0,0,-0.35277777,-79.374998,409.91338)">
      <g
         clip-path="url(#clipPath10952)"
         id="g10948">
        <text
           id="text10956"
           style="font-variant:normal;font-weight:bold;font-size:9.75px;font-family:Arial;-inkscape-font-specification:Arial-BoldMT;writing-mode:lr-tb;fill:#000000;fill-opacity:1;fill-rule:nonzero;stroke:none"
           transform="matrix(1,0,0,-1,300.4,978.75)">
          <tspan
             id="tspan10954"
             y="0"
             x="0 5.9864998 13.4745">FK1</tspan>
        </text>
      </g>
    </g>
    <g
       id="g10958"
       transform="matrix(0.35277777,0,0,-0.35277777,-79.374998,409.91338)">
      <g
         clip-path="url(#clipPath10964)"
         id="g10960">
        <text
           id="text10968"
           style="font-variant:normal;font-weight:bold;font-size:9.75px;font-family:Arial;-inkscape-font-specification:Arial-BoldMT;writing-mode:lr-tb;fill:#000000;fill-opacity:1;fill-rule:nonzero;stroke:none"
           transform="matrix(1,0,0,-1,329.75,978.75)">
          <tspan
             id="tspan10966"
             y="0"
             x="0 8.2387505 14.22525 20.21175 25.457251 31.44375 37.430248 41.183998 44.17725">ManagerID</tspan>
        </text>
      </g>
    </g>
    <g
       id="g10978"
       transform="matrix(0.35277777,0,0,-0.35277777,-79.374998,409.91338)">
      <g
         clip-path="url(#clipPath10984)"
         id="g10980">
        <text
           id="text10988"
           style="font-variant:normal;font-weight:bold;font-size:9.75px;font-family:Arial;-inkscape-font-specification:Arial-BoldMT;writing-mode:lr-tb;fill:#000000;fill-opacity:1;fill-rule:nonzero;stroke:none"
           transform="matrix(1,0,0,-1,329.75,966.75)">
          <tspan
             id="tspan10986"
             y="0"
             x="0 6.7372499 12.72375 15.717 18.719999 22.464001 24.716249">ShiftID</tspan>
        </text>
      </g>
    </g>
    <g
       id="g10998"
       transform="matrix(0.35277777,0,0,-0.35277777,-79.374998,409.91338)">
      <g
         clip-path="url(#clipPath11004)"
         id="g11000">
        <text
           id="text11008"
           style="font-variant:normal;font-weight:bold;font-size:9.75px;font-family:Arial;-inkscape-font-specification:Arial-BoldMT;writing-mode:lr-tb;fill:#000000;fill-opacity:1;fill-rule:nonzero;stroke:none"
           transform="matrix(1,0,0,-1,329.75,954.75)">
          <tspan
             id="tspan11006"
             y="0"
             x="0 5.9864998 8.9797497 11.98275 14.976">Title</tspan>
        </text>
      </g>
    </g>
    <g
       id="g11018"
       transform="matrix(0.35277777,0,0,-0.35277777,-79.374998,409.91338)">
      <g
         clip-path="url(#clipPath11024)"
         id="g11020">
        <text
           id="text11028"
           style="font-variant:normal;font-weight:bold;font-size:9.75px;font-family:Arial;-inkscape-font-specification:Arial-BoldMT;writing-mode:lr-tb;fill:#000000;fill-opacity:1;fill-rule:nonzero;stroke:none"
           transform="matrix(1,0,0,-1,329.75,942.75)">
          <tspan
             id="tspan11026"
             y="0"
             x="0 7.4879999 9.7402496 14.235 17.238001 23.224501 30.7125 35.958 39.702">BirthDate</tspan>
        </text>
      </g>
    </g>
    <g
       id="g11038"
       transform="matrix(0.35277777,0,0,-0.35277777,-79.374998,409.91338)">
      <g
         clip-path="url(#clipPath11044)"
         id="g11040">
        <text
           id="text11048"
           style="font-variant:normal;font-weight:bold;font-size:9.77499962px;font-family:Arial;-inkscape-font-specification:Arial-BoldMT;writing-mode:lr-tb;fill:#000000;fill-opacity:1;fill-rule:nonzero;stroke:none"
           transform="matrix(1,0,0,-1,329.75,930.75)">
          <tspan
             id="tspan11046"
             y="0"
             x="0 8.240325 14.2324 17.986 20.234249 23.978075 29.227249 32.218399 38.96315 41.964073 47.95615 50.957073 56.9296">MaritalStatus</tspan>
        </text>
      </g>
    </g>
    <g
       id="g11058"
       transform="matrix(0.35277777,0,0,-0.35277777,-79.374998,409.91338)">
      <g
         clip-path="url(#clipPath11064)"
         id="g11060">
        <text
           id="text11068"
           style="font-variant:normal;font-weight:bold;font-size:9.75px;font-family:Arial;-inkscape-font-specification:Arial-BoldMT;writing-mode:lr-tb;fill:#000000;fill-opacity:1;fill-rule:nonzero;stroke:none"
           transform="matrix(1,0,0,-1,329.75,918.72)">
          <tspan
             id="tspan11066"
             y="0"
             x="0 7.4977498 13.48425 19.470751 25.457251 30.702749">Gender</tspan>
        </text>
      </g>
    </g>
    <g
       id="g11078"
       transform="matrix(0.35277777,0,0,-0.35277777,-79.374998,409.91338)">
      <g
         clip-path="url(#clipPath11084)"
         id="g11080">
        <text
           id="text11088"
           style="font-variant:normal;font-weight:bold;font-size:9.75px;font-family:Arial;-inkscape-font-specification:Arial-BoldMT;writing-mode:lr-tb;fill:#000000;fill-opacity:1;fill-rule:nonzero;stroke:none"
           transform="matrix(1,0,0,-1,329.75,906.73)">
          <tspan
             id="tspan11086"
             y="0"
             x="0 7.4879999 9.7402496 14.235 19.480499 26.9685 32.214001 35.216999">HireDate</tspan>
        </text>
      </g>
    </g>
    <g
       id="g11098"
       transform="matrix(0.35277777,0,0,-0.35277777,-79.374998,409.91338)">
      <g
         clip-path="url(#clipPath11104)"
         id="g11100">
        <text
           id="text11108"
           style="font-variant:normal;font-weight:bold;font-size:9.75px;font-family:Arial;-inkscape-font-specification:Arial-BoldMT;writing-mode:lr-tb;fill:#000000;fill-opacity:1;fill-rule:nonzero;stroke:none"
           transform="matrix(1,0,0,-1,329.75,894.72)">
          <tspan
             id="tspan11106"
             y="0"
             x="0 6.7372499 11.98275 14.976 20.2215 24.716249 26.9685 32.955002 38.941502 44.928001 47.921249 53.166752">SalariedFlag</tspan>
        </text>
      </g>
    </g>
    <g
       id="g11118"
       transform="matrix(0.35277777,0,0,-0.35277777,-79.374998,409.91338)">
      <g
         clip-path="url(#clipPath11124)"
         id="g11120">
        <text
           id="text11128"
           style="font-variant:normal;font-weight:bold;font-size:9.75px;font-family:Arial;-inkscape-font-specification:Arial-BoldMT;writing-mode:lr-tb;fill:#000000;fill-opacity:1;fill-rule:nonzero;stroke:none"
           transform="matrix(1,0,0,-1,329.75,882.72)">
          <tspan
             id="tspan11126"
             y="0"
             x="0 6.7372499 11.98275 17.96925 23.21475 26.95875 29.211 35.197498 41.93475 48.681751 54.668251 60.654751 65.149498">VacationHours</tspan>
        </text>
      </g>
    </g>
    <g
       id="g11138"
       transform="matrix(0.35277777,0,0,-0.35277777,-79.374998,409.91338)">
      <g
         clip-path="url(#clipPath11144)"
         id="g11140">
        <text
           id="text11148"
           style="font-variant:normal;font-weight:bold;font-size:9.75px;font-family:Arial;-inkscape-font-specification:Arial-BoldMT;writing-mode:lr-tb;fill:#000000;fill-opacity:1;fill-rule:nonzero;stroke:none"
           transform="matrix(1,0,0,-1,329.75,870.7)">
          <tspan
             id="tspan11146"
             y="0"
             x="0 6.7372499 9.7305002 14.976 20.2215 26.95875 32.20425 37.449749 43.436249 48.681751 56.16975 62.15625 68.142754 71.8965">SickLeaveHours</tspan>
        </text>
      </g>
    </g>
    <g
       id="g11158"
       transform="matrix(0.35277777,0,0,-0.35277777,-79.374998,409.91338)">
      <g
         clip-path="url(#clipPath11164)"
         id="g11160">
        <text
           id="text11168"
           style="font-variant:normal;font-weight:bold;font-size:9.75px;font-family:Arial;-inkscape-font-specification:Arial-BoldMT;writing-mode:lr-tb;fill:#000000;fill-opacity:1;fill-rule:nonzero;stroke:none"
           transform="matrix(1,0,0,-1,329.75,858.7)">
          <tspan
             id="tspan11166"
             y="0"
             x="0 7.4879999 13.4745 17.228251 20.982 26.9685 32.955002 35.958 41.9445 44.937752 50.18325">CurrentFlag</tspan>
        </text>
      </g>
    </g>
    <g
       id="g11170"
       transform="matrix(0.35277777,0,0,-0.35277777,-79.374998,409.91338)">
      <g
         clip-path="url(#clipPath11176)"
         id="g11172">
        <text
           id="text11180"
           style="font-variant:normal;font-weight:bold;font-size:9.75px;font-family:Arial;-inkscape-font-specification:Arial-BoldMT;writing-mode:lr-tb;fill:#000000;fill-opacity:1;fill-rule:nonzero;stroke:none"
           transform="matrix(1,0,0,-1,300.4,846.7)">
          <tspan
             id="tspan11178"
             y="0"
             x="0 7.4994998">U3</tspan>
        </text>
      </g>
    </g>
    <g
       id="g11182"
       transform="matrix(0.35277777,0,0,-0.35277777,-79.374998,409.91338)">
      <g
         clip-path="url(#clipPath11188)"
         id="g11184">
        <text
           id="text11192"
           style="font-variant:normal;font-weight:bold;font-size:9.75px;font-family:Arial;-inkscape-font-specification:Arial-BoldMT;writing-mode:lr-tb;fill:#000000;fill-opacity:1;fill-rule:nonzero;stroke:none"
           transform="matrix(1,0,0,-1,329.75,846.7)">
          <tspan
             id="tspan11190"
             y="0"
             x="0 3.7537501 9.7402496 17.979 23.9655 29.952 32.945251">rowguid</tspan>
        </text>
      </g>
    </g>
    <g
       id="g11202"
       transform="matrix(0.35277777,0,0,-0.35277777,-79.374998,409.91338)">
      <g
         clip-path="url(#clipPath11208)"
         id="g11204">
        <text
           id="text11212"
           style="font-variant:normal;font-weight:bold;font-size:9.75px;font-family:Arial;-inkscape-font-specification:Arial-BoldMT;writing-mode:lr-tb;fill:#000000;fill-opacity:1;fill-rule:nonzero;stroke:none"
           transform="matrix(1,0,0,-1,329.75,834.7)">
          <tspan
             id="tspan11210"
             y="0"
             x="0 8.2387505 14.22525 20.21175 23.205 26.948999 29.20125 35.187752 41.174252 47.921249 53.907749 56.910751">ModifiedDate</tspan>
        </text>
      </g>
    </g>
  </g>
</svg>
