<?xml version="1.0" encoding="UTF-8" standalone="no"?>
<svg
   xmlns:dc="http://purl.org/dc/elements/1.1/"
   xmlns:cc="http://creativecommons.org/ns#"
   xmlns:rdf="http://www.w3.org/1999/02/22-rdf-syntax-ns#"
   xmlns:svg="http://www.w3.org/2000/svg"
   xmlns="http://www.w3.org/2000/svg"
   id="svg13746"
   version="1.1"
   viewBox="0 0 49.157909 39.76833"
   height="39.76833mm"
   width="49.157909mm">
  <defs
     id="defs13740">
    <clipPath
       id="clipPath11388"
       clipPathUnits="userSpaceOnUse">
      <path
         style="clip-rule:evenodd"
         id="path11386"
         d="M 3.992e-5,0 H 2679 V 1659.75 H 3.992e-5 Z" />
    </clipPath>
    <clipPath
       id="clipPath11368"
       clipPathUnits="userSpaceOnUse">
      <path
         style="clip-rule:evenodd"
         id="path11366"
         d="M 3.992e-5,0 H 2679 V 1659.75 H 3.992e-5 Z" />
    </clipPath>
    <clipPath
       id="clipPath11346"
       clipPathUnits="userSpaceOnUse">
      <path
         style="clip-rule:evenodd"
         id="path11344"
         d="M 3.992e-5,0 H 2679 V 1659.75 H 3.992e-5 Z" />
    </clipPath>
    <clipPath
       id="clipPath11334"
       clipPathUnits="userSpaceOnUse">
      <path
         style="clip-rule:evenodd"
         id="path11332"
         d="M 3.992e-5,0 H 2679 V 1659.75 H 3.992e-5 Z" />
    </clipPath>
    <clipPath
       id="clipPath11320"
       clipPathUnits="userSpaceOnUse">
      <path
         style="clip-rule:evenodd"
         id="path11318"
         d="M 3.992e-5,0 H 2679 V 1659.75 H 3.992e-5 Z" />
    </clipPath>
    <clipPath
       id="clipPath11308"
       clipPathUnits="userSpaceOnUse">
      <path
         style="clip-rule:evenodd"
         id="path11306"
         d="M 3.992e-5,0 H 2679 V 1659.75 H 3.992e-5 Z" />
    </clipPath>
    <clipPath
       id="clipPath11294"
       clipPathUnits="userSpaceOnUse">
      <path
         style="clip-rule:evenodd"
         id="path11292"
         d="M 3.992e-5,0 H 2679 V 1659.75 H 3.992e-5 Z" />
    </clipPath>
    <clipPath
       id="clipPath11282"
       clipPathUnits="userSpaceOnUse">
      <path
         style="clip-rule:evenodd"
         id="path11280"
         d="M 3.992e-5,0 H 2679 V 1659.75 H 3.992e-5 Z" />
    </clipPath>
    <clipPath
       id="clipPath11268"
       clipPathUnits="userSpaceOnUse">
      <path
         style="clip-rule:evenodd"
         id="path11266"
         d="M 3.992e-5,0 H 2679 V 1659.75 H 3.992e-5 Z" />
    </clipPath>
    <clipPath
       id="clipPath11256"
       clipPathUnits="userSpaceOnUse">
      <path
         style="clip-rule:evenodd"
         id="path11254"
         d="M 3.992e-5,0 H 2679 V 1659.75 H 3.992e-5 Z" />
    </clipPath>
    <clipPath
       id="clipPath11240"
       clipPathUnits="userSpaceOnUse">
      <path
         style="clip-rule:evenodd"
         id="path11238"
         d="M 3.992e-5,0 H 2679 V 1659.75 H 3.992e-5 Z" />
    </clipPath>
  </defs>
  <metadata
     id="metadata13743">
    <rdf:RDF>
      <cc:Work
         rdf:about="">
        <dc:format>image/svg+xml</dc:format>
        <dc:type
           rdf:resource="http://purl.org/dc/dcmitype/StillImage" />
        <dc:title></dc:title>
      </cc:Work>
    </rdf:RDF>
  </metadata>
  <g
     transform="translate(-32.117474,-97.199169)"
     id="layer1">
    <path
       id="path11230"
       style="fill:#cdcdcd;fill-opacity:1;fill-rule:evenodd;stroke:none;stroke-width:0.35277775"
       d="M 32.246283,104.38314 H 81.144812 V 97.326169 H 32.246283 Z" />
    <path
       id="path11232"
       style="fill:none;stroke:#000000;stroke-width:0.25400001;stroke-linecap:round;stroke-linejoin:round;stroke-miterlimit:2;stroke-dasharray:none;stroke-opacity:1"
       d="M 32.246283,104.38314 H 81.144812 V 97.326169 H 32.246283 Z" />
    <g
       id="g11234"
       transform="matrix(0.35277777,0,0,-0.35277777,15.237104,518.28672)">
      <g
         clip-path="url(#clipPath11240)"
         id="g11236">
        <text
           id="text11244"
           style="font-variant:normal;font-weight:normal;font-size:9.75px;font-family:ArialMT;-inkscape-font-specification:ArialMT;writing-mode:lr-tb;fill:#000000;fill-opacity:1;fill-rule:nonzero;stroke:none"
           transform="matrix(1,0,0,-1,53.625,1180.05)">
          <tspan
             id="tspan11242"
             y="0"
             x="0 6.7372499 14.976 20.2215 22.464001 28.4505 32.955002 38.941502 44.187 51.674999 56.920502 62.907001 68.152496 71.8965 74.14875 82.387497 88.374001 93.619499 96.612747 104.10075 106.34325 110.84775 113.841 119.0865 122.8305">EmployeeDepartmentHistory</tspan>
        </text>
      </g>
    </g>
    <path
       id="path11246"
       style="fill:#ffffff;fill-opacity:1;fill-rule:evenodd;stroke:none;stroke-width:0.35277775"
       d="M 32.246283,136.83869 H 81.144812 V 104.38172 H 32.246283 Z" />
    <path
       id="path11248"
       style="fill:none;stroke:#000000;stroke-width:0.25400001;stroke-linecap:round;stroke-linejoin:round;stroke-miterlimit:2;stroke-dasharray:none;stroke-opacity:1"
       d="M 32.246283,136.83869 H 81.146574 V 104.38314 H 32.246283 Z m 16.169923,0 v -32.45555 m -16.169923,20.8668 h 48.900291" />
    <g
       id="g11250"
       transform="matrix(0.35277777,0,0,-0.35277777,15.237104,518.28672)">
      <g
         clip-path="url(#clipPath11256)"
         id="g11252">
        <text
           id="text11260"
           style="font-variant:normal;font-weight:bold;font-size:9.75px;font-family:Arial;-inkscape-font-specification:Arial-BoldMT;writing-mode:lr-tb;fill:#000000;fill-opacity:1;fill-rule:nonzero;stroke:none"
           transform="matrix(1,0,0,-1,52.225,1160.05)">
          <tspan
             id="tspan11258"
             y="0"
             x="0 6.7372499 14.22525 16.477501 22.464001 29.952">PK,FK2</tspan>
        </text>
      </g>
    </g>
    <g
       id="g11262"
       transform="matrix(0.35277777,0,0,-0.35277777,15.237104,518.28672)">
      <g
         clip-path="url(#clipPath11268)"
         id="g11264">
        <text
           id="text11272"
           style="font-variant:normal;font-weight:bold;font-size:9.75px;font-family:Arial;-inkscape-font-specification:Arial-BoldMT;writing-mode:lr-tb;fill:#000000;fill-opacity:1;fill-rule:nonzero;stroke:none"
           transform="matrix(1,0,0,-1,98.075,1160.05)">
          <tspan
             id="tspan11270"
             y="0"
             x="0 6.7372499 15.72675 21.713249 24.706499 30.693001 35.938499 41.924999 47.170502 50.16375">EmployeeID</tspan>
        </text>
      </g>
    </g>
    <path
       id="path11274"
       style="fill:none;stroke:#000000;stroke-width:0.37031084;stroke-linecap:butt;stroke-linejoin:miter;stroke-miterlimit:2;stroke-dasharray:none;stroke-opacity:1"
       d="M 49.827317,109.34319 H 70.019964" />
    <g
       id="g11276"
       transform="matrix(0.35277777,0,0,-0.35277777,15.237104,518.28672)">
      <g
         clip-path="url(#clipPath11282)"
         id="g11278">
        <text
           id="text11286"
           style="font-variant:normal;font-weight:bold;font-size:9.77499962px;font-family:Arial;-inkscape-font-specification:Arial-BoldMT;writing-mode:lr-tb;fill:#000000;fill-opacity:1;fill-rule:nonzero;stroke:none"
           transform="matrix(1,0,0,-1,52.225,1148.05)">
          <tspan
             id="tspan11284"
             y="0"
             x="0 6.74475 14.2324 16.48065 22.453175 29.97015">PK,FK1</tspan>
        </text>
      </g>
    </g>
    <g
       id="g11288"
       transform="matrix(0.35277777,0,0,-0.35277777,15.237104,518.28672)">
      <g
         clip-path="url(#clipPath11294)"
         id="g11290">
        <text
           id="text11298"
           style="font-variant:normal;font-weight:bold;font-size:9.77499962px;font-family:Arial;-inkscape-font-specification:Arial-BoldMT;writing-mode:lr-tb;fill:#000000;fill-opacity:1;fill-rule:nonzero;stroke:none"
           transform="matrix(1,0,0,-1,98.075,1148.05)">
          <tspan
             id="tspan11296"
             y="0"
             x="0 7.4876499 12.736825 18.709351 24.730749 28.48435 31.485275 40.478275 46.470348 52.442875 55.473125 58.464275">DepartmentID</tspan>
        </text>
      </g>
    </g>
    <path
       id="path11300"
       style="fill:none;stroke:#000000;stroke-width:0.37031084;stroke-linecap:butt;stroke-linejoin:miter;stroke-miterlimit:2;stroke-dasharray:none;stroke-opacity:1"
       d="M 49.827317,113.57652 H 72.958603" />
    <g
       id="g11302"
       transform="matrix(0.35277777,0,0,-0.35277777,15.237104,518.28672)">
      <g
         clip-path="url(#clipPath11308)"
         id="g11304">
        <text
           id="text11312"
           style="font-variant:normal;font-weight:bold;font-size:9.75px;font-family:Arial;-inkscape-font-specification:Arial-BoldMT;writing-mode:lr-tb;fill:#000000;fill-opacity:1;fill-rule:nonzero;stroke:none"
           transform="matrix(1,0,0,-1,52.225,1136.03)">
          <tspan
             id="tspan11310"
             y="0"
             x="0 6.7502499">PK</tspan>
        </text>
      </g>
    </g>
    <g
       id="g11314"
       transform="matrix(0.35277777,0,0,-0.35277777,15.237104,518.28672)">
      <g
         clip-path="url(#clipPath11320)"
         id="g11316">
        <text
           id="text11324"
           style="font-variant:normal;font-weight:bold;font-size:9.75px;font-family:Arial;-inkscape-font-specification:Arial-BoldMT;writing-mode:lr-tb;fill:#000000;fill-opacity:1;fill-rule:nonzero;stroke:none"
           transform="matrix(1,0,0,-1,98.075,1136.03)">
          <tspan
             id="tspan11322"
             y="0"
             x="0 6.7372499 9.7402496 15.72675 19.480499 22.4835 29.9715 35.216999 38.960999">StartDate</tspan>
        </text>
      </g>
    </g>
    <path
       id="path11326"
       style="fill:none;stroke:#000000;stroke-width:0.37031084;stroke-linecap:butt;stroke-linejoin:miter;stroke-miterlimit:2;stroke-dasharray:none;stroke-opacity:1"
       d="M 49.827317,117.80986 H 65.511464" />
    <g
       id="g11328"
       transform="matrix(0.35277777,0,0,-0.35277777,15.237104,518.28672)">
      <g
         clip-path="url(#clipPath11334)"
         id="g11330">
        <text
           id="text11338"
           style="font-variant:normal;font-weight:bold;font-size:9.75px;font-family:Arial;-inkscape-font-specification:Arial-BoldMT;writing-mode:lr-tb;fill:#000000;fill-opacity:1;fill-rule:nonzero;stroke:none"
           transform="matrix(1,0,0,-1,52.225,1124.02)">
          <tspan
             id="tspan11336"
             y="0"
             x="0 6.7372499 14.22525 16.477501 22.464001 29.952">PK,FK3</tspan>
        </text>
      </g>
    </g>
    <g
       id="g11340"
       transform="matrix(0.35277777,0,0,-0.35277777,15.237104,518.28672)">
      <g
         clip-path="url(#clipPath11346)"
         id="g11342">
        <text
           id="text11350"
           style="font-variant:normal;font-weight:bold;font-size:9.75px;font-family:Arial;-inkscape-font-specification:Arial-BoldMT;writing-mode:lr-tb;fill:#000000;fill-opacity:1;fill-rule:nonzero;stroke:none"
           transform="matrix(1,0,0,-1,98.075,1124.02)">
          <tspan
             id="tspan11348"
             y="0"
             x="0 6.7372499 12.72375 15.717 18.719999 22.464001 24.716249">ShiftID</tspan>
        </text>
      </g>
    </g>
    <path
       id="path11352"
       style="fill:none;stroke:#000000;stroke-width:0.37031084;stroke-linecap:butt;stroke-linejoin:miter;stroke-miterlimit:2;stroke-dasharray:none;stroke-opacity:1"
       d="M 49.827317,122.04319 H 61.193464" />
    <g
       id="g11362"
       transform="matrix(0.35277777,0,0,-0.35277777,15.237104,518.28672)">
      <g
         clip-path="url(#clipPath11368)"
         id="g11364">
        <text
           id="text11372"
           style="font-variant:normal;font-weight:normal;font-size:9.75px;font-family:ArialMT;-inkscape-font-specification:ArialMT;writing-mode:lr-tb;fill:#000000;fill-opacity:1;fill-rule:nonzero;stroke:none"
           transform="matrix(1,0,0,-1,98.075,1100.03)">
          <tspan
             id="tspan11370"
             y="0"
             x="0 6.7372499 11.98275 17.96925 24.716249 30.702749 32.955002">EndDate</tspan>
        </text>
      </g>
    </g>
    <g
       id="g11382"
       transform="matrix(0.35277777,0,0,-0.35277777,15.237104,518.28672)">
      <g
         clip-path="url(#clipPath11388)"
         id="g11384">
        <text
           id="text11392"
           style="font-variant:normal;font-weight:bold;font-size:9.75px;font-family:Arial;-inkscape-font-specification:Arial-BoldMT;writing-mode:lr-tb;fill:#000000;fill-opacity:1;fill-rule:nonzero;stroke:none"
           transform="matrix(1,0,0,-1,98.075,1088)">
          <tspan
             id="tspan11390"
             y="0"
             x="0 8.2387505 14.22525 20.21175 23.205 26.948999 29.20125 35.187752 41.174252 47.921249 53.907749 56.910751">ModifiedDate</tspan>
        </text>
      </g>
    </g>
  </g>
</svg>
